<svg xmlns="http://www.w3.org/2000/svg" xmlns:xlink="http://www.w3.org/1999/xlink" width="300" zoomAndPan="magnify" viewBox="0 0 224.87999 225" height="300" preserveAspectRatio="xMidYMid meet" version="1.0"><defs><g/><clipPath id="4f81745c71"><path d="M 24 24 L 201 24 L 201 201 L 24 201 Z M 24 24 " clip-rule="nonzero"/></clipPath><clipPath id="5d9b184408"><path d="M -47.332031 109.5 L 115.628906 -47.457031 L 272.585938 115.503906 L 109.625 272.460938 Z M -47.332031 109.5 " clip-rule="nonzero"/></clipPath><clipPath id="b6b3ec63fa"><path d="M -47.332031 109.5 L 115.628906 -47.457031 L 272.585938 115.503906 L 109.625 272.460938 Z M -47.332031 109.5 " clip-rule="nonzero"/></clipPath></defs><g clip-path="url(#4f81745c71)"><g clip-path="url(#5d9b184408)"><g clip-path="url(#b6b3ec63fa)"><path fill="#ffffff" d="M 176.425781 51.75 C 176.332031 51.613281 176.230469 51.484375 176.117188 51.359375 C 176.011719 51.257812 175.898438 51.164062 175.78125 51.078125 C 174.78125 50.042969 173.753906 49.03125 172.699219 48.046875 C 171.648438 47.058594 170.574219 46.101562 169.472656 45.167969 C 168.375 44.234375 167.253906 43.332031 166.109375 42.453125 C 164.964844 41.574219 163.800781 40.726562 162.617188 39.90625 C 161.429688 39.085938 160.226562 38.292969 159.003906 37.53125 C 157.777344 36.769531 156.535156 36.039062 155.277344 35.339844 C 154.015625 34.636719 152.742188 33.96875 151.449219 33.332031 C 150.15625 32.691406 148.847656 32.085938 147.527344 31.511719 C 146.203125 30.9375 144.867188 30.398438 143.519531 29.890625 C 142.171875 29.382812 140.808594 28.90625 139.4375 28.464844 C 138.066406 28.023438 136.683594 27.613281 135.292969 27.242188 C 133.898438 26.867188 132.5 26.527344 131.089844 26.222656 C 129.679688 25.917969 128.265625 25.644531 126.84375 25.410156 C 125.421875 25.171875 123.996094 24.972656 122.5625 24.808594 C 121.128906 24.640625 119.695312 24.511719 118.257812 24.414062 C 116.820312 24.320312 115.378906 24.257812 113.9375 24.234375 C 112.496094 24.207031 111.054688 24.21875 109.613281 24.265625 C 108.171875 24.308594 106.734375 24.390625 105.296875 24.507812 C 103.859375 24.625 102.429688 24.773438 101 24.960938 C 99.570312 25.148438 98.144531 25.371094 96.726562 25.625 C 95.308594 25.882812 93.898438 26.171875 92.492188 26.5 C 91.089844 26.824219 89.691406 27.183594 88.304688 27.578125 C 86.917969 27.972656 85.542969 28.398438 84.175781 28.859375 C 82.8125 29.320312 81.457031 29.816406 80.117188 30.34375 C 78.777344 30.871094 77.449219 31.433594 76.132812 32.023438 C 74.820312 32.617188 73.519531 33.242188 72.238281 33.898438 C 70.953125 34.554688 69.6875 35.242188 68.4375 35.960938 C 67.1875 36.679688 65.957031 37.429688 64.746094 38.207031 C 63.53125 38.988281 62.339844 39.796875 61.164062 40.632812 C 59.992188 41.46875 58.839844 42.335938 57.710938 43.230469 C 56.578125 44.125 55.46875 45.046875 54.382812 45.992188 C 53.300781 46.941406 52.238281 47.917969 51.199219 48.917969 C 51.167969 48.945312 51.140625 48.976562 51.109375 49.007812 L 51.097656 49.015625 L 51.082031 49.03125 C 50.050781 50.03125 49.039062 51.050781 48.058594 52.101562 C 47.074219 53.148438 46.117188 54.21875 45.1875 55.3125 C 44.257812 56.40625 43.351562 57.519531 42.476562 58.660156 C 41.601562 59.796875 40.75 60.957031 39.933594 62.136719 C 39.113281 63.316406 38.320312 64.515625 37.5625 65.730469 C 36.800781 66.949219 36.070312 68.1875 35.367188 69.441406 C 34.667969 70.695312 33.996094 71.964844 33.359375 73.25 C 32.71875 74.539062 32.113281 75.839844 31.539062 77.15625 C 30.964844 78.472656 30.421875 79.800781 29.910156 81.144531 C 29.402344 82.484375 28.921875 83.839844 28.480469 85.207031 C 28.035156 86.574219 27.625 87.949219 27.25 89.335938 C 26.871094 90.722656 26.527344 92.117188 26.21875 93.519531 C 25.910156 94.921875 25.636719 96.332031 25.398438 97.746094 C 25.160156 99.164062 24.953125 100.585938 24.785156 102.011719 C 24.613281 103.4375 24.476562 104.867188 24.378906 106.300781 C 24.277344 107.730469 24.210938 109.167969 24.179688 110.601562 C 24.152344 112.039062 24.15625 113.472656 24.195312 114.910156 C 24.234375 116.347656 24.308594 117.78125 24.421875 119.210938 C 24.53125 120.644531 24.675781 122.074219 24.855469 123.496094 C 25.035156 124.921875 25.25 126.34375 25.496094 127.757812 C 25.746094 129.171875 26.03125 130.578125 26.347656 131.980469 C 26.664062 133.382812 27.019531 134.773438 27.402344 136.15625 C 27.789062 137.539062 28.207031 138.914062 28.660156 140.277344 C 29.113281 141.640625 29.601562 142.992188 30.121094 144.332031 C 30.636719 145.667969 31.191406 146.996094 31.773438 148.308594 C 32.359375 149.621094 32.972656 150.917969 33.621094 152.199219 C 34.265625 153.480469 34.945312 154.75 35.65625 155.996094 C 36.363281 157.246094 37.101562 158.476562 37.871094 159.691406 C 38.640625 160.902344 39.4375 162.097656 40.265625 163.269531 C 41.09375 164.445312 41.949219 165.597656 42.832031 166.730469 C 43.71875 167.863281 44.628906 168.972656 45.566406 170.0625 C 46.503906 171.148438 47.46875 172.210938 48.457031 173.253906 C 48.625 173.515625 48.832031 173.734375 49.085938 173.910156 C 50.089844 174.949219 51.117188 175.957031 52.167969 176.945312 C 53.222656 177.929688 54.296875 178.890625 55.394531 179.820312 C 56.496094 180.753906 57.617188 181.660156 58.761719 182.539062 C 59.902344 183.414062 61.066406 184.265625 62.253906 185.085938 C 63.4375 185.90625 64.644531 186.699219 65.867188 187.460938 C 67.089844 188.222656 68.332031 188.953125 69.59375 189.652344 C 70.851562 190.355469 72.128906 191.023438 73.421875 191.660156 C 74.714844 192.300781 76.019531 192.90625 77.34375 193.480469 C 78.664062 194.054688 80 194.59375 81.351562 195.105469 C 82.699219 195.613281 84.058594 196.089844 85.433594 196.53125 C 86.804688 196.972656 88.1875 197.378906 89.578125 197.753906 C 90.972656 198.128906 92.371094 198.46875 93.78125 198.773438 C 95.1875 199.078125 96.605469 199.347656 98.027344 199.585938 C 99.449219 199.820312 100.875 200.023438 102.308594 200.1875 C 103.738281 200.355469 105.175781 200.484375 106.613281 200.582031 C 108.050781 200.675781 109.492188 200.738281 110.933594 200.761719 C 112.375 200.789062 113.816406 200.777344 115.257812 200.730469 C 116.699219 200.6875 118.136719 200.605469 119.574219 200.488281 C 121.011719 200.371094 122.445312 200.222656 123.875 200.035156 C 125.304688 199.847656 126.726562 199.628906 128.144531 199.371094 C 129.5625 199.113281 130.976562 198.824219 132.378906 198.5 C 133.785156 198.171875 135.179688 197.8125 136.566406 197.417969 C 137.953125 197.027344 139.328125 196.597656 140.695312 196.136719 C 142.0625 195.675781 143.414062 195.179688 144.757812 194.652344 C 146.097656 194.125 147.425781 193.566406 148.738281 192.972656 C 150.054688 192.378906 151.351562 191.753906 152.636719 191.097656 C 153.917969 190.441406 155.1875 189.753906 156.4375 189.035156 C 157.6875 188.316406 158.917969 187.566406 160.128906 186.789062 C 161.34375 186.007812 162.535156 185.203125 163.710938 184.363281 C 164.882812 183.527344 166.035156 182.660156 167.167969 181.765625 C 168.296875 180.871094 169.40625 179.949219 170.492188 179.003906 C 171.578125 178.054688 172.640625 177.078125 173.675781 176.078125 C 173.710938 176.046875 173.742188 176.015625 173.773438 175.984375 L 173.785156 175.972656 C 174.820312 174.972656 175.828125 173.949219 176.8125 172.902344 C 177.796875 171.855469 178.753906 170.785156 179.683594 169.691406 C 180.613281 168.597656 181.519531 167.484375 182.394531 166.34375 C 183.269531 165.207031 184.117188 164.046875 184.9375 162.867188 C 185.757812 161.6875 186.550781 160.488281 187.308594 159.273438 C 188.070312 158.054688 188.800781 156.816406 189.503906 155.5625 C 190.203125 154.3125 190.875 153.039062 191.511719 151.753906 C 192.152344 150.46875 192.757812 149.167969 193.332031 147.851562 C 193.910156 146.535156 194.453125 145.203125 194.960938 143.863281 C 195.472656 142.519531 195.949219 141.164062 196.394531 139.800781 C 196.835938 138.433594 197.246094 137.058594 197.625 135.671875 C 198 134.285156 198.34375 132.890625 198.652344 131.488281 C 198.960938 130.085938 199.234375 128.675781 199.476562 127.257812 C 199.714844 125.84375 199.921875 124.421875 200.089844 122.996094 C 200.261719 121.570312 200.398438 120.140625 200.496094 118.707031 C 200.597656 117.273438 200.664062 115.839844 200.695312 114.402344 C 200.726562 112.96875 200.71875 111.53125 200.679688 110.097656 C 200.640625 108.660156 200.566406 107.226562 200.457031 105.792969 C 200.347656 104.363281 200.203125 102.933594 200.023438 101.507812 C 199.84375 100.082031 199.628906 98.664062 199.378906 97.25 C 199.132812 95.832031 198.847656 94.425781 198.53125 93.023438 C 198.210938 91.625 197.859375 90.230469 197.476562 88.847656 C 197.089844 87.464844 196.671875 86.089844 196.21875 84.730469 C 195.765625 83.367188 195.277344 82.015625 194.761719 80.675781 C 194.242188 79.335938 193.691406 78.007812 193.105469 76.695312 C 192.523438 75.382812 191.90625 74.085938 191.261719 72.804688 C 190.613281 71.523438 189.933594 70.257812 189.226562 69.007812 C 188.515625 67.757812 187.777344 66.527344 187.007812 65.3125 C 186.242188 64.101562 185.441406 62.90625 184.613281 61.734375 C 183.789062 60.558594 182.933594 59.40625 182.046875 58.273438 C 181.164062 57.140625 180.253906 56.03125 179.316406 54.941406 C 178.378906 53.855469 177.414062 52.789062 176.425781 51.75 Z M 31.238281 110.972656 C 31.316406 105.957031 31.863281 100.992188 32.871094 96.078125 C 33.875 91.160156 35.328125 86.382812 37.230469 81.738281 C 39.128906 77.09375 41.441406 72.667969 44.167969 68.457031 C 46.894531 64.242188 49.988281 60.320312 53.445312 56.6875 C 56.765625 60.449219 59.707031 64.484375 62.273438 68.796875 C 64.839844 73.105469 66.984375 77.617188 68.710938 82.328125 C 70.433594 87.042969 71.707031 91.871094 72.53125 96.820312 C 73.351562 101.769531 73.710938 106.753906 73.601562 111.769531 C 73.523438 116.78125 72.980469 121.746094 71.972656 126.65625 C 70.964844 131.570312 69.511719 136.347656 67.617188 140.988281 C 65.71875 145.628906 63.40625 150.054688 60.683594 154.265625 C 57.960938 158.476562 54.871094 162.398438 51.417969 166.03125 C 48.101562 162.269531 45.164062 158.230469 42.597656 153.921875 C 40.035156 149.613281 37.890625 145.101562 36.164062 140.394531 C 34.4375 135.6875 33.160156 130.859375 32.332031 125.914062 C 31.503906 120.96875 31.140625 115.988281 31.238281 110.972656 Z M 56.316406 171.132812 C 60.105469 167.175781 63.496094 162.902344 66.484375 158.308594 C 69.472656 153.71875 72.007812 148.886719 74.09375 143.820312 C 76.175781 138.753906 77.769531 133.535156 78.875 128.167969 C 79.980469 122.800781 80.574219 117.378906 80.664062 111.902344 C 80.78125 106.421875 80.386719 100.976562 79.484375 95.570312 C 78.582031 90.164062 77.183594 84.886719 75.289062 79.742188 C 73.394531 74.597656 71.039062 69.671875 68.222656 64.96875 C 65.402344 60.269531 62.171875 55.867188 58.53125 51.773438 C 59.472656 50.933594 60.433594 50.121094 61.414062 49.328125 C 62.394531 48.535156 63.390625 47.765625 64.40625 47.019531 C 65.421875 46.273438 66.453125 45.550781 67.503906 44.851562 C 68.554688 44.15625 69.617188 43.484375 70.699219 42.835938 C 71.777344 42.1875 72.875 41.5625 73.984375 40.964844 C 75.09375 40.371094 76.214844 39.796875 77.351562 39.253906 C 78.488281 38.707031 79.636719 38.191406 80.796875 37.699219 C 81.957031 37.207031 83.128906 36.742188 84.3125 36.308594 C 85.492188 35.871094 86.683594 35.460938 87.886719 35.082031 C 89.085938 34.699219 90.296875 34.347656 91.515625 34.023438 C 92.730469 33.699219 93.957031 33.402344 95.1875 33.132812 C 96.417969 32.867188 97.65625 32.625 98.898438 32.417969 C 100.140625 32.207031 101.386719 32.027344 102.640625 31.875 C 103.890625 31.722656 105.144531 31.601562 106.402344 31.507812 C 107.65625 31.414062 108.914062 31.347656 110.175781 31.3125 C 111.433594 31.277344 112.695312 31.273438 113.953125 31.296875 C 115.214844 31.320312 116.472656 31.375 117.730469 31.457031 C 118.988281 31.539062 120.242188 31.652344 121.496094 31.792969 C 122.746094 31.933594 123.996094 32.105469 125.242188 32.304688 C 126.484375 32.503906 127.722656 32.730469 128.957031 32.988281 C 130.191406 33.246094 131.417969 33.53125 132.636719 33.84375 C 133.859375 34.160156 135.070312 34.503906 136.273438 34.875 C 137.480469 35.242188 138.675781 35.640625 139.859375 36.070312 C 141.046875 36.496094 142.222656 36.949219 143.386719 37.429688 C 144.550781 37.910156 145.703125 38.421875 146.84375 38.957031 C 147.984375 39.492188 149.113281 40.050781 150.226562 40.640625 C 151.34375 41.226562 152.441406 41.839844 153.53125 42.480469 C 154.617188 43.117188 155.6875 43.78125 156.742188 44.46875 C 157.796875 45.160156 158.835938 45.871094 159.859375 46.609375 C 160.878906 47.347656 161.882812 48.109375 162.871094 48.890625 C 163.855469 49.675781 164.824219 50.480469 165.773438 51.3125 C 166.722656 52.140625 167.652344 52.992188 168.5625 53.863281 C 167.617188 54.851562 166.699219 55.863281 165.804688 56.894531 C 164.910156 57.925781 164.039062 58.976562 163.191406 60.050781 C 162.34375 61.121094 161.523438 62.210938 160.726562 63.324219 C 159.933594 64.433594 159.160156 65.5625 158.417969 66.707031 C 157.675781 67.851562 156.957031 69.015625 156.269531 70.195312 C 155.578125 71.375 154.917969 72.566406 154.285156 73.777344 C 153.648438 74.988281 153.042969 76.210938 152.464844 77.449219 C 151.890625 78.6875 151.339844 79.9375 150.820312 81.203125 C 150.300781 82.464844 149.8125 83.738281 149.351562 85.027344 C 148.890625 86.3125 148.460938 87.609375 148.0625 88.914062 C 147.664062 90.21875 147.292969 91.535156 146.953125 92.859375 C 146.617188 94.179688 146.308594 95.511719 146.03125 96.847656 C 145.753906 98.1875 145.507812 99.53125 145.292969 100.878906 C 145.078125 102.226562 144.894531 103.582031 144.742188 104.9375 C 144.589844 106.296875 144.472656 107.65625 144.382812 109.019531 C 144.292969 110.382812 144.238281 111.746094 144.210938 113.113281 C 144.1875 114.476562 144.191406 115.84375 144.230469 117.210938 C 144.269531 118.574219 144.339844 119.9375 144.441406 121.300781 C 144.542969 122.664062 144.675781 124.023438 144.839844 125.378906 C 145.003906 126.734375 145.199219 128.085938 145.425781 129.433594 C 145.652344 130.78125 145.910156 132.121094 146.203125 133.457031 C 146.492188 134.789062 146.8125 136.117188 147.160156 137.4375 C 147.511719 138.757812 147.894531 140.070312 148.308594 141.371094 C 148.71875 142.671875 149.160156 143.964844 149.632812 145.246094 C 150.105469 146.527344 150.605469 147.800781 151.136719 149.058594 C 151.667969 150.316406 152.226562 151.5625 152.816406 152.792969 C 153.40625 154.027344 154.023438 155.246094 154.667969 156.449219 C 155.3125 157.652344 155.984375 158.839844 156.6875 160.015625 C 157.386719 161.1875 158.113281 162.34375 158.867188 163.480469 C 159.621094 164.621094 160.402344 165.742188 161.210938 166.84375 C 162.015625 167.945312 162.847656 169.03125 163.703125 170.09375 C 164.558594 171.15625 165.441406 172.203125 166.34375 173.222656 C 165.402344 174.0625 164.441406 174.875 163.464844 175.667969 C 162.484375 176.460938 161.484375 177.230469 160.46875 177.976562 C 159.453125 178.722656 158.421875 179.445312 157.371094 180.140625 C 156.324219 180.839844 155.257812 181.511719 154.175781 182.160156 C 153.097656 182.808594 152 183.433594 150.890625 184.03125 C 149.78125 184.625 148.660156 185.199219 147.523438 185.742188 C 146.386719 186.289062 145.238281 186.804688 144.078125 187.296875 C 142.917969 187.789062 141.746094 188.25 140.5625 188.6875 C 139.382812 189.125 138.191406 189.535156 136.988281 189.914062 C 135.789062 190.296875 134.578125 190.648438 133.359375 190.972656 C 132.144531 191.296875 130.917969 191.59375 129.6875 191.863281 C 128.457031 192.128906 127.21875 192.367188 125.976562 192.578125 C 124.734375 192.789062 123.488281 192.96875 122.238281 193.121094 C 120.984375 193.273438 119.730469 193.394531 118.476562 193.488281 C 117.21875 193.582031 115.960938 193.648438 114.699219 193.683594 C 113.441406 193.71875 112.179688 193.722656 110.921875 193.699219 C 109.660156 193.675781 108.402344 193.621094 107.144531 193.539062 C 105.886719 193.457031 104.632812 193.34375 103.378906 193.203125 C 102.128906 193.0625 100.878906 192.890625 99.636719 192.691406 C 98.390625 192.492188 97.152344 192.265625 95.917969 192.007812 C 94.683594 191.75 93.457031 191.464844 92.238281 191.152344 C 91.015625 190.835938 89.804688 190.492188 88.601562 190.121094 C 87.394531 189.753906 86.203125 189.351562 85.015625 188.925781 C 83.828125 188.5 82.65625 188.046875 81.488281 187.566406 C 80.324219 187.082031 79.171875 186.574219 78.03125 186.039062 C 76.890625 185.503906 75.761719 184.945312 74.648438 184.355469 C 73.53125 183.769531 72.433594 183.15625 71.347656 182.515625 C 70.261719 181.878906 69.191406 181.214844 68.132812 180.527344 C 67.078125 179.835938 66.039062 179.125 65.019531 178.386719 C 63.996094 177.648438 62.992188 176.886719 62.003906 176.105469 C 61.019531 175.320312 60.050781 174.515625 59.101562 173.683594 C 58.152344 172.855469 57.222656 172.003906 56.316406 171.132812 Z M 171.429688 168.308594 C 169.78125 166.429688 168.222656 164.476562 166.75 162.453125 C 165.28125 160.429688 163.90625 158.339844 162.632812 156.191406 C 161.355469 154.039062 160.179688 151.832031 159.105469 149.574219 C 158.035156 147.3125 157.066406 145.011719 156.207031 142.660156 C 155.347656 140.3125 154.597656 137.929688 153.957031 135.507812 C 153.316406 133.089844 152.789062 130.648438 152.378906 128.179688 C 151.964844 125.714844 151.664062 123.234375 151.480469 120.738281 C 151.296875 118.242188 151.226562 115.746094 151.273438 113.246094 C 151.320312 110.742188 151.480469 108.25 151.757812 105.765625 C 152.035156 103.277344 152.425781 100.808594 152.929688 98.359375 C 153.433594 95.910156 154.050781 93.488281 154.78125 91.09375 C 155.511719 88.703125 156.347656 86.347656 157.292969 84.03125 C 158.242188 81.714844 159.292969 79.449219 160.449219 77.230469 C 161.605469 75.011719 162.859375 72.851562 164.214844 70.75 C 165.570312 68.648438 167.019531 66.613281 168.566406 64.644531 C 170.109375 62.675781 171.738281 60.78125 173.457031 58.964844 C 175.109375 60.84375 176.671875 62.796875 178.144531 64.820312 C 179.613281 66.84375 180.988281 68.929688 182.265625 71.082031 C 183.546875 73.230469 184.722656 75.4375 185.796875 77.699219 C 186.871094 79.957031 187.835938 82.261719 188.699219 84.609375 C 189.558594 86.960938 190.308594 89.34375 190.949219 91.761719 C 191.589844 94.179688 192.117188 96.625 192.53125 99.089844 C 192.945312 101.558594 193.246094 104.039062 193.429688 106.535156 C 193.617188 109.03125 193.683594 111.527344 193.636719 114.03125 C 193.589844 116.53125 193.429688 119.027344 193.152344 121.511719 C 192.875 124 192.484375 126.46875 191.980469 128.917969 C 191.472656 131.367188 190.855469 133.789062 190.125 136.183594 C 189.398438 138.578125 188.558594 140.929688 187.609375 143.246094 C 186.664062 145.5625 185.609375 147.828125 184.453125 150.046875 C 183.296875 152.265625 182.039062 154.425781 180.683594 156.527344 C 179.324219 158.628906 177.875 160.664062 176.328125 162.632812 C 174.785156 164.601562 173.152344 166.492188 171.429688 168.308594 Z M 171.429688 168.308594 " fill-opacity="1" fill-rule="nonzero"/></g></g></g><g fill="#ffffff" fill-opacity="1"><g transform="translate(106.329866, 90.037707)"><g><path d="M 2.578125 0 L 2.578125 -24.390625 L 9.609375 -24.390625 L 9.609375 0 Z M 2.578125 0 "/></g></g></g><g fill="#ffffff" fill-opacity="1"><g transform="translate(98.825415, 121.893336)"><g><path d="M 2.578125 0 L 2.578125 -24.390625 L 12.921875 -24.390625 C 15.546875 -24.390625 17.835938 -23.882812 19.796875 -22.875 C 21.765625 -21.863281 23.296875 -20.441406 24.390625 -18.609375 C 25.484375 -16.773438 26.03125 -14.632812 26.03125 -12.1875 C 26.03125 -9.75 25.484375 -7.613281 24.390625 -5.78125 C 23.296875 -3.945312 21.765625 -2.523438 19.796875 -1.515625 C 17.835938 -0.503906 15.546875 0 12.921875 0 Z M 9.609375 -6.3125 L 12.71875 -6.3125 C 14.570312 -6.3125 16.054688 -6.84375 17.171875 -7.90625 C 18.285156 -8.976562 18.84375 -10.40625 18.84375 -12.1875 C 18.84375 -13.976562 18.285156 -15.40625 17.171875 -16.46875 C 16.054688 -17.539062 14.570312 -18.078125 12.71875 -18.078125 L 9.609375 -18.078125 Z M 9.609375 -6.3125 "/></g></g></g><g fill="#ffffff" fill-opacity="1"><g transform="translate(100.535613, 153.748964)"><g><path d="M 2.578125 0 L 2.578125 -24.390625 L 12.859375 -24.390625 C 14.921875 -24.390625 16.710938 -24.015625 18.234375 -23.265625 C 19.753906 -22.523438 20.925781 -21.46875 21.75 -20.09375 C 22.582031 -18.726562 23 -17.109375 23 -15.234375 C 23 -13.367188 22.582031 -11.742188 21.75 -10.359375 C 20.925781 -8.984375 19.753906 -7.914062 18.234375 -7.15625 C 16.710938 -6.40625 14.921875 -6.03125 12.859375 -6.03125 L 9.609375 -6.03125 L 9.609375 0 Z M 9.546875 -11.921875 L 12.1875 -11.921875 C 13.351562 -11.921875 14.257812 -12.207031 14.90625 -12.78125 C 15.5625 -13.363281 15.890625 -14.164062 15.890625 -15.1875 C 15.890625 -16.207031 15.5625 -17.007812 14.90625 -17.59375 C 14.257812 -18.175781 13.351562 -18.46875 12.1875 -18.46875 L 9.546875 -18.46875 Z M 9.546875 -11.921875 "/></g></g></g></svg>